{"title":"Khoonkhar (2018) Hindi Dubbed (Original) HDRip x264 AAC","magnet":"magnet:?xt=urn:btih:8ceec477ec4b48f9216410f7ea2cf93304660662&dn=Khoonkhar+%282018%29+Hindi+Dubbed+%28Original%29+HDRip+x264+AAC&tr=udp%3A%2F%2Ftracker.leechers-paradise.org%3A6969&tr=udp%3A%2F%2Fzer0day.ch%3A1337&tr=udp%3A%2F%2Fopen.demonii.com%3A1337&tr=udp%3A%2F%2Ftracker.coppersurfer.tk%3A6969&tr=udp%3A%2F%2Fexodus.desync.com%3A6969","uploader":"shmasti","categoryP":"video","categoryS":"movies","size":"731099362","seeders":"37","leechers":"76","description":"General\r\nComplete name                  : Khoonkhar (2018) Hindi Dubbed (Original) HDRip x264 AAC by Full4movies.mkv\r\nFormat                         : Matroska\r\nFormat version                 : Version 4 / Version 2\r\nFile size                      : 697 MiB\r\nDuration                       : 2 h 27 min\r\nOverall bit rate mode          : Variable\r\nOverall bit rate               : 662 kb/s\r\nMovie name                     : www.Full4movies.co\r\nEncoded date                   : UTC 2018-07-08 06:36:29\r\nWriting application            : mkvmerge v8.1.0 (&apos;Psychedelic Postcard&apos;) 32bit\r\nWriting library                : libebml v1.3.1 + libmatroska v1.4.2\r\n\r\nVideo\r\nID                             : 1\r\nFormat                         : AVC\r\nFormat/Info                    : Advanced Video Codec\r\nFormat profile                 : High@L3\r\nFormat settings, CABAC         : Yes\r\nFormat settings, RefFrames     : 4 frames\r\nCodec ID                       : V_MPEG4/ISO/AVC\r\nDuration                       : 2 h 27 min\r\nBit rate                       : 566 kb/s\r\nWidth                          : 720 pixels\r\nHeight                         : 304 pixels\r\nDisplay aspect ratio           : 2.35:1\r\nFrame rate mode                : Constant\r\nFrame rate                     : 25.000 FPS\r\nColor space                    : YUV\r\nChroma subsampling             : 4:2:0\r\nBit depth                      : 8 bits\r\nScan type                      : Progressive\r\nBits/(Pixel*Frame)             : 0.103\r\nStream size                    : 596 MiB (85%)\r\nWriting library                : x264 core 155 r2901 7d0ff22\r\nLanguage                       : Telugu\r\nDefault                        : Yes\r\nForced                         : No\r\n\r\nAudio\r\nID                             : 2\r\nFormat                         : MPEG Audio\r\nFormat version                 : Version 1\r\nFormat profile                 : Layer 3\r\nMode                           : Joint stereo\r\nMode extension                 : MS Stereo\r\nCodec ID                       : A_MPEG/L3\r\nCodec ID/Hint                  : MP3\r\nDuration                       : 2 h 27 min\r\nBit rate mode                  : Variable\r\nBit rate                       : 96.0 kb/s\r\nChannel(s)                     : 2 channels\r\nSampling rate                  : 44.1 kHz\r\nFrame rate                     : 38.281 FPS (1152 SPF)\r\nCompression mode               : Lossy\r\nStream size                    : 98.9 MiB (14%)\r\nWriting library                : LAME3.99r\r\nEncoding settings              : -m j -V 4 -q 3 -lowpass 15.1 --abr 96\r\nLanguage                       : Hindi\r\nDefault                        : Yes\r\nForced                         : No","last_updated":"2018-07-08T12:09:47.367Z","parsed":{"xt":"urn:btih:8ceec477ec4b48f9216410f7ea2cf93304660662","dn":"Khoonkhar (2018) Hindi Dubbed (Original) HDRip x264 AAC","tr":["udp://exodus.desync.com:6969","udp://open.demonii.com:1337","udp://tracker.coppersurfer.tk:6969","udp://tracker.leechers-paradise.org:6969","udp://zer0day.ch:1337"],"infoHash":"8ceec477ec4b48f9216410f7ea2cf93304660662","infoHashBuffer":{"type":"Buffer","data":[140,238,196,119,236,75,72,249,33,100,16,247,234,44,249,51,4,102,6,98]},"name":"Khoonkhar (2018) Hindi Dubbed (Original) HDRip x264 AAC","announce":["udp://exodus.desync.com:6969","udp://open.demonii.com:1337","udp://tracker.coppersurfer.tk:6969","udp://tracker.leechers-paradise.org:6969","udp://zer0day.ch:1337"],"urlList":[]}}